<mxfile host="app.diagrams.net" modified="2021-12-30T05:56:12.482Z" agent="5.0 (Windows NT 10.0; Win64; x64) AppleWebKit/537.36 (KHTML, like Gecko) Chrome/92.0.4515.159 Safari/537.36" etag="UiV3BI4D223bC3BMdrDU" version="16.1.0" type="github">
  <diagram id="ftjHKULH0FkGQVZO5ua7" name="第 1 页">
    <mxGraphModel dx="1038" dy="491" grid="1" gridSize="10" guides="1" tooltips="1" connect="1" arrows="1" fold="1" page="1" pageScale="1" pageWidth="827" pageHeight="1169" math="0" shadow="0">
      <root>
        <mxCell id="0" />
        <mxCell id="1" parent="0" />
        <mxCell id="ulOWdnkNR7rhqU03nJMM-11" value="" style="html=1;shadow=0;dashed=0;shape=mxgraph.bootstrap.rrect;rSize=5;strokeColor=#CED4DA;html=1;whiteSpace=wrap;fillColor=#FFFFFF;fontColor=#7D868C;align=left;spacing=15;spacingLeft=40;fontSize=14;" vertex="1" parent="1">
          <mxGeometry x="160" y="130" width="340" height="40" as="geometry" />
        </mxCell>
        <mxCell id="ulOWdnkNR7rhqU03nJMM-12" value="分类名称" style="html=1;shadow=0;dashed=0;shape=mxgraph.bootstrap.leftButton;strokeColor=inherit;gradientColor=inherit;fontColor=inherit;fillColor=#E9ECEF;rSize=5;perimeter=none;whiteSpace=wrap;resizeHeight=1;fontSize=14;" vertex="1" parent="ulOWdnkNR7rhqU03nJMM-11">
          <mxGeometry width="95.8974358974359" height="40" as="geometry" />
        </mxCell>
        <mxCell id="ulOWdnkNR7rhqU03nJMM-13" value="提交" style="rounded=1;html=1;shadow=0;dashed=0;whiteSpace=wrap;fontSize=10;fillColor=#E6E6E6;align=center;strokeColor=#E6E6E6;fontColor=#333333;" vertex="1" parent="1">
          <mxGeometry x="200" y="200" width="105.5" height="40" as="geometry" />
        </mxCell>
        <mxCell id="ulOWdnkNR7rhqU03nJMM-14" value="取消" style="rounded=1;html=1;shadow=0;dashed=0;whiteSpace=wrap;fontSize=10;fillColor=#E6E6E6;align=center;strokeColor=#E6E6E6;fontColor=#333333;" vertex="1" parent="1">
          <mxGeometry x="350" y="200" width="105.5" height="40" as="geometry" />
        </mxCell>
      </root>
    </mxGraphModel>
  </diagram>
</mxfile>
